<?xml version="1.0" encoding="utf-8" ?><svg xmlns="http://www.w3.org/2000/svg" xmlns:xlink="http://www.w3.org/1999/xlink" width="434" height="458" viewBox="0 0 434 458"><clipPath id="cl_3"><rect x="7.6293945e-05" y="7.6293945e-05" width="434" height="458.00006"/></clipPath><g clip-path="url(#cl_3)"><defs><linearGradient id="gradient_0" gradientUnits="userSpaceOnUse" x1="598.00641" y1="750.85803" x2="512.42596" y2="495.89886"><stop offset="0" stop-color="#AC587B"/><stop offset="1" stop-color="#E888B6"/></linearGradient></defs><path fill="url(#gradient_0)" transform="matrix(0.780576 0 0 0.78157 -180.313 -174.29)" d="M516.495 465.703C527.738 466.047 539.334 464.867 550.408 464.604C567.603 464.195 593.269 463.524 610.159 465.946C617.747 465.869 630.824 467.506 638.543 468.638C666.103 472.679 696.099 478.853 716.902 499.018C729.672 511.397 745.936 540.666 747.538 559.509C748.132 566.487 743.724 572.264 739.109 577.155C725.071 592.034 684.654 602.075 664.595 603.257C662.138 633.532 657.056 681.174 616.972 675.997C600.433 673.861 574.822 664.857 560.803 655.402C555.435 651.777 550.641 647.367 546.583 642.319C526.613 617.651 521.586 575.339 516.015 545.218C513.817 550.288 511.258 560.285 509.596 565.961C506.294 577.088 502.902 588.187 499.419 599.258C486.844 638.813 471.448 678.334 463.805 719.432C473.685 721.917 484.229 724.372 493.757 727.939C515.387 736.036 535.832 747.183 557.417 755.419C560.325 756.528 563.429 757.705 566.259 758.982C561.401 763.822 552.077 766.958 545.666 769.467C520.956 779.137 494.95 785.016 468.323 784.903C463.855 784.884 455.089 785.206 451.479 782.04C449.212 780.052 449.873 774.066 450.12 771.304C452.35 754.967 455.759 738.311 458.804 722.108C429.751 714.716 400.561 706.997 371.246 700.595C369.513 700.217 365.995 699.355 365.099 697.748L365.552 697.17C369.169 696.755 374.848 698.821 378.593 699.562C405.851 704.956 432.603 712.453 459.744 718.608C462.108 702.757 465.976 690.841 470.28 675.527C478.861 644.994 490.124 615.693 499.689 585.5C508.817 556.684 515.206 536.579 515.401 506.191C514.63 497.965 516.088 475.199 516.495 465.703ZM537.302 768.959C544.841 766.003 552.595 763.06 559.996 759.817C534.751 752.196 509.371 735.433 483.463 728.245C476.774 726.389 469.623 724.642 463.078 722.642C461.774 730.979 451.239 776.048 453.831 779.435C455.364 781.439 458.332 781.736 460.671 781.915C485.705 783.833 513.771 777.076 537.302 768.959Z"/><path fill="#E183AE" transform="matrix(0.780576 0 0 0.78157 -180.313 -174.29)" d="M516.495 465.703C527.738 466.047 539.334 464.867 550.408 464.604C567.603 464.195 593.269 463.524 610.159 465.946C607.732 466.159 603.627 466.007 601.825 466.737C602.818 471.255 611.359 467.916 615.3 473.635L615.334 474.794L614.425 475.229C611.832 474.309 608.492 475.024 605.89 475.744C602.07 479.253 597.852 484.322 592.84 487.315C580.042 494.956 563.745 498.977 549.747 503.923C549.294 504.083 546.526 503.427 545.781 503.58C543.702 503.64 539.027 507.119 537.556 507.342C533.553 507.947 529.366 508.358 525.297 509.376C521.855 510.237 523.795 507.186 520.425 508.726L519.976 507.896C519.389 506.824 518.966 506.213 518.268 505.218L517.71 505.422L517.211 507.112C516.387 506.048 516.455 505.385 516.261 504.025L516.224 504.938L515.651 505.357L515.401 506.191C514.63 497.965 516.088 475.199 516.495 465.703Z"/><path fill="#E183AE" transform="matrix(0.780576 0 0 0.78157 -180.313 -174.29)" d="M677.219 248.704C685.946 247.269 698.336 250.257 703.288 257.797C716.208 277.468 710.382 311.376 707.031 333.194C722.787 335.225 750.493 344.175 761.627 354.766C784.249 376.283 745.663 413.72 730.843 429.385C702.051 459.819 650.065 460.69 610.875 460.266C589.065 459.976 565.522 456.697 543.855 453.659C534.545 452.353 524.193 450.167 514.979 449.223C519.218 436.349 522.108 423.553 526.639 410.26C540.344 369.914 558.822 329.353 585.018 295.529C606.047 268.378 643.399 251.964 677.219 248.704Z"/><defs><linearGradient id="gradient_1" gradientUnits="userSpaceOnUse" x1="359.84067" y1="253.67493" x2="434.65045" y2="440.53412"><stop offset="0" stop-color="#9A5D78"/><stop offset="1" stop-color="#D880A8"/></linearGradient></defs><path fill="url(#gradient_1)" transform="matrix(0.780576 0 0 0.78157 -180.313 -174.29)" d="M365.811 309.816C367.259 285.419 373.049 235.869 405.441 237.458C427.96 238.563 461.66 249.14 477.476 265.582C500.423 289.437 506.961 326.165 510.673 357.902C511.68 366.824 512.89 378.168 512.971 386.976C515.232 409.513 513.173 426.613 511.378 448.455C504.265 448.688 497.253 449.281 490.162 449.482C472.288 449.905 454.405 449.822 436.536 449.233C434.35 449.156 420.363 448.61 418.615 448.187C390.495 447.195 344.545 438.205 321.694 422.162C304.149 409.844 272.356 360.558 289.384 339.622C303.624 322.114 344.383 312.653 365.811 309.816Z"/><path fill="#E183AE" transform="matrix(0.780576 0 0 0.78157 -180.313 -174.29)" d="M418.615 448.187C418.866 447.6 418.826 447.925 418.629 447.204C416.095 445.04 411.393 441.307 411.475 437.901C413.434 435.322 428.897 427.897 432.105 427.07C448.302 422.893 462.94 419.682 477.193 410.374C481.153 407.788 488.655 405.656 492.94 402.98C495.591 401.324 497.867 398.873 500.676 397.399L503.049 398.366L504.037 397.819C504.339 396.255 504.553 394.934 504.767 393.356C507.493 393.757 506.462 394.107 508.598 393.302C509.259 392.002 509.337 391.482 510.555 390.725L511.067 392.275C512.906 390.881 510.429 389.86 512.161 386.843L512.971 386.976C515.232 409.513 513.173 426.613 511.378 448.455C504.265 448.688 497.253 449.281 490.162 449.482C472.288 449.905 454.405 449.822 436.536 449.233C434.35 449.156 420.363 448.61 418.615 448.187Z"/><defs><linearGradient id="gradient_2" gradientUnits="userSpaceOnUse" x1="326.07379" y1="656.32996" x2="417.44333" y2="427.88141"><stop offset="0" stop-color="#BD7293"/><stop offset="1" stop-color="#EA8AB8"/></linearGradient></defs><path fill="url(#gradient_2)" transform="matrix(0.780576 0 0 0.78157 -180.313 -174.29)" d="M386.519 454.23C429.004 453.097 471.482 456.751 513.149 465.124C507.175 497.74 484.955 548.235 469.899 577.739C458.609 599.865 439.324 627.531 418.558 640.759C409.333 646.636 389.341 654.876 378.366 658.161C363.693 662.788 334.301 669.132 324.921 652.933C315.069 635.92 319.233 600.788 323.019 581.947C301.064 575.061 246.545 563.996 262.037 530.415C268.811 515.734 280.89 501.642 291.725 489.683C316.577 462.253 351.278 455.322 386.519 454.23Z"/></g></svg>