<?xml version="1.0" encoding="utf-8" ?><svg xmlns="http://www.w3.org/2000/svg" xmlns:xlink="http://www.w3.org/1999/xlink" width="736" height="816" viewBox="0 0 736 816"><path fill="#EB83B8" transform="scale(0.423963 0.424116)" d="M493.46 1221.85C468.333 1217.35 444.497 1207.4 423.624 1192.7C385.696 1165.54 343.623 1114.49 336.631 1068.47C325.516 995.309 395.964 959.272 434.42 909.638C458.898 878.045 427.451 859.071 410.169 834.433C399.187 818.776 391.117 802.572 388.168 783.02C385.571 766.073 387.491 748.741 393.732 732.773C417.282 672.999 478.362 673.731 510.355 626.592C518.862 614.176 523.966 599.747 525.159 584.743C527.313 559.835 520.489 531.667 519.31 505.579C515.809 428.114 518.432 335.124 565.952 269.8C571.741 261.843 581.733 252.104 590.429 247.318C633.366 223.691 690.101 213.807 738.573 209.83C756.386 208.369 766.578 211.211 782.577 211.305C790.847 211.354 812.304 207.307 821.523 206.043C896.708 195.735 980.734 199.186 1043.64 246.673C1091.29 282.65 1110.77 342.675 1113.51 400.15C1114.73 425.847 1113.76 451.092 1117.17 476.764L1117.82 484.609C1126.44 537.423 1143.09 587.426 1179.79 627.701C1204.45 654.755 1243.44 675.962 1254.54 712.726C1269.88 763.562 1209.09 815.89 1221.53 849.136C1224.83 857.94 1233.31 864.873 1240.74 870.173C1276.59 895.748 1311.58 908.194 1319.8 956.652C1328.29 1006.78 1299.33 1078.25 1269.96 1118.85C1248.32 1148.77 1211.1 1183.23 1178.08 1199.71C1177.95 1219.04 1176.92 1229.61 1174.75 1248.46C1179.05 1252.69 1209.99 1280.93 1213.67 1283.07C1210.02 1276.93 1206.04 1273.17 1201.23 1267.97C1244.13 1272.33 1321.22 1299.54 1316.04 1355.51C1314.83 1368.67 1304.11 1381.01 1299.63 1394.13C1367.16 1505.28 1397.04 1636.47 1402.19 1765.51C1404.25 1817.05 1401.82 1872.61 1398.52 1924L563.116 1924C561.853 1909.28 559.494 1893.58 557.869 1878.76C555.662 1857.45 553.871 1836.11 552.498 1814.73C546.037 1721.74 549.743 1628.33 563.55 1536.14C568.095 1505.93 573.508 1474.52 581.986 1445.14C550.884 1445.18 539.463 1442.04 524.848 1412.79C502.072 1367.2 501.178 1315.47 496.892 1265.75C495.681 1251.69 496.084 1236.22 493.59 1222.53L493.46 1221.85Z"/><path fill="#091A21" transform="scale(0.423963 0.424116)" d="M493.46 1221.85C468.333 1217.35 444.497 1207.4 423.624 1192.7C385.696 1165.54 343.623 1114.49 336.631 1068.47C325.516 995.309 395.964 959.272 434.42 909.638C458.898 878.045 427.451 859.071 410.169 834.433C399.187 818.776 391.117 802.572 388.168 783.02C385.571 766.073 387.491 748.741 393.732 732.773C417.282 672.999 478.362 673.731 510.355 626.592C518.862 614.176 523.966 599.747 525.159 584.743C527.313 559.835 520.489 531.667 519.31 505.579C515.809 428.114 518.432 335.124 565.952 269.8C571.741 261.843 581.733 252.104 590.429 247.318C633.366 223.691 690.101 213.807 738.573 209.83C756.386 208.369 766.578 211.211 782.577 211.305C790.847 211.354 812.304 207.307 821.523 206.043C896.708 195.735 980.734 199.186 1043.64 246.673C1091.29 282.65 1110.77 342.675 1113.51 400.15C1114.73 425.847 1113.76 451.092 1117.17 476.764C1110.74 478.299 1104.29 479.861 1098.23 482.595C1096.99 485.54 1097.27 486.754 1097.36 489.916L1096.76 496.673L1095.24 506.859C1090.27 533.144 1071.21 562.699 1046.5 574.279C1045.45 610.186 1042.4 641.948 1026.55 675.09C996.244 738.442 943.748 764.937 875.554 763.866L875.86 773.325C871.086 775.12 816.723 771.903 809.857 770.548C784.884 769.212 763.951 768.376 739.016 768.571C742.355 788.124 741.074 811.339 729.118 827.993C722.172 837.668 712.443 844.998 700.501 846.996C658.15 854.084 635.169 800.528 574.594 825.687C557.293 832.874 542.462 845.177 531.294 860.129C485.947 920.841 474.966 1023.68 479.153 1096.96C484.043 1099.52 489.365 1102.16 493.989 1105.08C493.921 1122.87 492.249 1150.45 493.935 1167.09C493.932 1184.31 492.991 1205.23 493.46 1221.85Z"/><path fill="#024B87" transform="scale(0.423963 0.424116)" d="M873.844 314.32C922.538 330.865 960.808 351.29 990.407 395.802C1016.54 392.003 1037.1 392.761 1059.72 408.896C1075.68 420.28 1092.72 446.306 1094.92 465.855C1095.42 470.267 1096.25 479.244 1098.23 482.595C1096.99 485.54 1097.27 486.754 1097.36 489.916L1096.76 496.673L1095.24 506.859C1090.27 533.144 1071.21 562.699 1046.5 574.279C1020.24 583.035 1007.97 585.379 981.257 575.76C960.976 566.089 954.805 557.518 940.496 540.443C937.231 535.77 933.862 534.666 928.591 532.323C921.26 534.504 916.387 535.917 909.863 540.156C902.135 570.73 892.057 593.452 863.475 610.277C841.797 623.12 815.857 626.679 791.522 620.147C770.348 614.612 758.526 604.929 743.036 590.149C739.206 584.284 734.639 575.593 728.542 573.007C728.656 569.695 729.238 570.928 727.51 568.891C724.782 568.954 722.961 569.218 720.296 569.58L725.762 566.53C726.166 565.884 726.57 565.237 726.974 564.59C725.89 552.928 721.436 542.099 721.101 530.281C719.962 497.218 739.271 465.62 767.172 448.634C783.59 438.638 801.926 433.677 821.162 435.047C831.522 435.784 840.785 437.833 850.814 440.239C865.014 399.725 872.784 357.238 873.844 314.32Z"/><path fill="#FECFC7" transform="scale(0.423963 0.424116)" d="M873.844 314.32C922.538 330.865 960.808 351.29 990.407 395.802C932.792 416.855 917.011 469.202 933.067 525.278C920.938 525.268 920.442 525.955 909.741 530.807C907.477 493.213 895.512 466.836 862.718 446.905C859.164 444.745 854.007 442.441 850.814 440.239C865.014 399.725 872.784 357.238 873.844 314.32Z"/><path fill="#FECFC7" transform="scale(0.423963 0.424116)" d="M1045.77 565.713C998.617 586.703 955.654 565.197 939.51 516.926C931.489 493.358 933.142 467.571 944.106 445.22C955.173 423.19 971.983 410.013 995.074 402.4C1015.23 433.846 1025.99 460.815 1035.26 497.365L1037.36 507.122C1041.14 526.627 1044.44 545.85 1045.77 565.713Z"/><path fill="#091A21" transform="scale(0.423963 0.424116)" d="M1011.26 509.777C1013.19 514.997 1011.05 523.344 1007.89 527.538C994.828 544.847 979.824 546.816 963.254 535.578C960.824 533.094 957.988 528.716 955.918 525.75C985.946 536.127 991.2 532.788 1011.26 509.777Z"/><path fill="#091A21" transform="scale(0.423963 0.424116)" d="M995.074 402.4C1043.22 391.284 1079.44 426.265 1088.29 470.796C1088.99 474.309 1090.37 480.158 1089.12 483.476C1086.57 484.632 1085.46 485.124 1082.68 485.931C1070.6 489.149 1046.82 496.036 1035.26 497.365C1025.99 460.815 1015.23 433.846 995.074 402.4Z"/><path fill="#091A21" transform="scale(0.423963 0.424116)" d="M1035.26 497.365C1046.82 496.036 1070.6 489.149 1082.68 485.931C1086.08 487.438 1088.21 487.943 1089 491.934L1090.18 494.815C1083.11 524.689 1079.87 538.323 1055.83 559.562C1052.58 561.565 1049.06 563.84 1045.77 565.713C1044.44 545.85 1041.14 526.627 1037.36 507.122L1035.26 497.365Z"/><path fill="#024B87" transform="scale(0.423963 0.424116)" d="M1035.26 497.365C1046.82 496.036 1070.6 489.149 1082.68 485.931C1086.08 487.438 1088.21 487.943 1089 491.934C1082.12 493.619 1040.6 502.69 1037.36 507.122L1035.26 497.365Z"/><path fill="#024B87" transform="scale(0.423963 0.424116)" d="M1090.18 494.815C1091.35 491.316 1090.56 491.776 1092.98 490.542C1095.56 492.346 1095.81 493.178 1096.76 496.673L1095.24 506.859C1090.68 512.111 1088 523.319 1084.81 529.859C1081.01 537.648 1066.81 561.852 1057.73 562.082C1057.15 561.344 1056.29 560.328 1055.83 559.562C1079.87 538.323 1083.11 524.689 1090.18 494.815Z"/><path fill="#FECFC7" transform="scale(0.423963 0.424116)" d="M750.303 585.797C723.728 555.574 721.437 511.038 744.769 478.246C768.102 445.455 810.927 433.025 848.189 448.23C881.342 461.758 902.772 494.273 902.133 530.076C901.494 565.879 878.917 597.609 845.303 609.945C811.688 622.282 773.948 612.689 750.303 585.797Z"/><path fill="#091A21" transform="scale(0.423963 0.424116)" d="M750.303 585.797C723.728 555.574 721.437 511.038 744.769 478.246C768.102 445.455 810.927 433.025 848.189 448.23C824.897 506.96 801.244 546.667 750.303 585.797Z"/><path fill="#091A21" transform="scale(0.423963 0.424116)" d="M870.179 539.893C872.069 541.117 871.273 540.355 872.264 542.494C871.511 548.604 868.68 553.991 864.743 558.631C847.433 579.028 827.083 575.641 806.992 563.957C803.913 561.751 800.293 558.426 797.364 555.889C830.887 566.211 846.24 566.686 870.179 539.893Z"/><path fill="#FECFC7" transform="scale(0.423963 0.424116)" d="M909.863 540.156C916.387 535.917 921.26 534.504 928.591 532.323C933.862 534.666 937.231 535.77 940.496 540.443C954.805 557.518 960.976 566.089 981.257 575.76C1007.97 585.379 1020.24 583.035 1046.5 574.279C1045.45 610.186 1042.4 641.948 1026.55 675.09C996.244 738.442 943.748 764.937 875.554 763.866L875.86 773.325C871.086 775.12 816.723 771.903 809.857 770.548C784.884 769.212 763.951 768.376 739.016 768.571C728.234 727.309 714.093 690.875 688.858 656.383C683.321 670.916 671.499 681.592 655.06 679.391C626.949 675.03 609.934 641.16 600.523 617.728C572.53 548.038 619.781 524.461 663.606 586.566C683.567 583.274 704.308 571.852 720.296 569.58C722.961 569.218 724.782 568.954 727.51 568.891C729.238 570.928 728.656 569.695 728.542 573.007C734.639 575.593 739.206 584.284 743.036 590.149C758.526 604.929 770.348 614.612 791.522 620.147C815.857 626.679 841.797 623.12 863.475 610.277C892.057 593.452 902.135 570.73 909.863 540.156Z"/><path fill="#DA87B3" fill-opacity="0.83529413" transform="scale(0.423963 0.424116)" d="M809.857 770.548C805.046 766.17 789.89 757.849 783.34 752.515C762.9 735.866 743.056 712.703 729.916 690.052C777.826 731.144 810.476 753.767 875.554 763.866L875.86 773.325C871.086 775.12 816.723 771.903 809.857 770.548Z"/><path fill="#091A21" transform="scale(0.423963 0.424116)" d="M720.296 569.58C722.961 569.218 724.782 568.954 727.51 568.891C729.238 570.928 728.656 569.695 728.542 573.007C734.639 575.593 739.206 584.284 743.036 590.149C721.399 602.53 705.941 609.557 681.544 616.494C677.839 608.947 674.901 602.517 669.705 595.794C666.238 593.219 665.195 590.432 663.606 586.566C683.567 583.274 704.308 571.852 720.296 569.58Z"/><path fill="#024B87" transform="scale(0.423963 0.424116)" d="M720.296 569.58C722.961 569.218 724.782 568.954 727.51 568.891C729.238 570.928 728.656 569.695 728.542 573.007C710.314 581.7 686.821 585.12 669.705 595.794C666.238 593.219 665.195 590.432 663.606 586.566C683.567 583.274 704.308 571.852 720.296 569.58Z"/><path fill="#DA87B3" fill-opacity="0.83529413" transform="scale(0.423963 0.424116)" d="M940.496 540.443C954.805 557.518 960.976 566.089 981.257 575.76C972.767 584.918 961.297 593.094 950.465 599.235C957.024 591.3 961.893 586.107 968.216 577.567C970.95 576.803 971.912 576.767 973.99 574.789C972.985 572.879 965.767 570.011 963.184 567.862C954.899 560.97 944.211 550.734 940.496 540.443Z"/><path fill="#DA87B3" fill-opacity="0.83529413" transform="scale(0.423963 0.424116)" d="M620.763 556.854C650.038 567.282 658.633 611.761 664.228 639.075C660.497 643.842 656.728 648.58 652.921 653.287C652.197 657.823 658.741 658.12 660.024 663.067C656.804 664.32 652.286 663.056 649.281 661.617C642.099 652.683 654.499 644.495 653.418 634.609C646.661 613.527 638.433 582.42 622.332 567.587C611.593 576.504 610.375 586.169 607.953 599.443C607.334 602.834 607.866 606.484 606.306 609.42C601.589 604.942 602.67 588.436 603.768 582.219C605.941 569.92 610.681 563.763 620.763 556.854Z"/><path fill="#DA87B3" fill-opacity="0.83529413" transform="scale(0.423963 0.424116)" d="M860.732 639.501C864.005 639.868 872.507 643.08 875.983 644.421C893.256 651.087 911.378 654.096 929.859 651.834C935.983 651.085 943.95 647.121 950.131 647.605L950.557 648.678L948.003 651.372C936.258 658.773 922.601 662.569 908.722 662.291C888.62 661.745 874.244 653.689 860.732 639.501Z"/><path fill="#091A21" transform="scale(0.423963 0.424116)" d="M1117.17 476.764L1117.82 484.609C1126.44 537.423 1143.09 587.426 1179.79 627.701C1204.45 654.755 1243.44 675.962 1254.54 712.726C1269.88 763.562 1209.09 815.89 1221.53 849.136C1224.83 857.94 1233.31 864.873 1240.74 870.173C1276.59 895.748 1311.58 908.194 1319.8 956.652C1328.29 1006.78 1299.33 1078.25 1269.96 1118.85C1248.32 1148.77 1211.1 1183.23 1178.08 1199.71C1177.2 1163.97 1174.87 1104.04 1168.12 1070.08C1171.36 1066.8 1179.02 1061.19 1182.96 1058.14C1181.84 1034.05 1176.03 1010.11 1170.82 986.615C1146.3 898.026 1100.58 792.706 985.444 831.309C970.086 836.458 928.722 856.143 914.811 842.848C901.177 829.818 899.657 796.203 898.928 778.019C889.68 778.164 883.247 779.186 875.86 773.325L875.554 763.866C943.748 764.937 996.244 738.442 1026.55 675.09C1042.4 641.948 1045.45 610.186 1046.5 574.279C1071.21 562.699 1090.27 533.144 1095.24 506.859L1096.76 496.673L1097.36 489.916C1097.27 486.754 1096.99 485.54 1098.23 482.595C1104.29 479.861 1110.74 478.299 1117.17 476.764Z"/><path fill="#024B87" transform="scale(0.423963 0.424116)" d="M1117.17 476.764L1117.82 484.609C1111.24 485.455 1103.81 487.971 1097.36 489.916C1097.27 486.754 1096.99 485.54 1098.23 482.595C1104.29 479.861 1110.74 478.299 1117.17 476.764Z"/><path fill="#FECFC7" transform="scale(0.423963 0.424116)" d="M493.989 1105.08C504.478 1109 515.062 1110.65 525.953 1112.85C564.755 1120.68 602.258 1122.15 641.633 1118.34C653.901 1117.15 677.568 1111.04 688.273 1111.39C689.011 1119.03 685.975 1143.54 685.162 1152.42C681.763 1193.78 677.076 1235.02 671.105 1276.09L809.89 1246.97C830.453 1242.58 853.324 1238.62 873.484 1232.68C883.283 1229.79 906.013 1199.53 915.728 1199.41C917.829 1205.83 905.242 1225.43 901.589 1231.56C925.094 1223.29 961.959 1209.15 985.888 1207.98C971.513 1223.61 947.977 1232.53 929.666 1243.49C957.245 1236.25 981.861 1222.94 1010.6 1220.23C994.599 1237.33 967.89 1247.08 948.045 1259.46C961.371 1255.63 1008.86 1237.81 1018.93 1241.29C1021.31 1250.32 966.042 1277.27 956.431 1282.52C975.502 1277.64 995.275 1269.83 1014.52 1269.81C1010.22 1275.26 1006.65 1278.62 1000.7 1282.33C943.615 1317.91 879.715 1345.72 817.63 1371.22C745.719 1400.75 672.314 1428.81 595.52 1441.96C590.981 1442.74 586.372 1443.67 581.986 1445.14C550.884 1445.18 539.463 1442.04 524.848 1412.79C502.072 1367.2 501.178 1315.47 496.892 1265.75C495.681 1251.69 496.084 1236.22 493.59 1222.53L493.46 1221.85C492.991 1205.23 493.932 1184.31 493.935 1167.09C492.249 1150.45 493.921 1122.87 493.989 1105.08Z"/><path fill="#DA87B3" fill-opacity="0.83529413" transform="scale(0.423963 0.424116)" d="M493.989 1105.08C504.478 1109 515.062 1110.65 525.953 1112.85C564.755 1120.68 602.258 1122.15 641.633 1118.34C653.901 1117.15 677.568 1111.04 688.273 1111.39C647.784 1143.56 543.096 1151.24 494.288 1139.77C494.295 1147.15 494.688 1160.18 493.935 1167.09C492.249 1150.45 493.921 1122.87 493.989 1105.08Z"/><path fill="#FECFC7" transform="scale(0.423963 0.424116)" d="M1201.23 1267.97C1244.13 1272.33 1321.22 1299.54 1316.04 1355.51C1314.83 1368.67 1304.11 1381.01 1299.63 1394.13C1292.03 1402.3 1276.19 1434.97 1266.28 1435.52L1265.11 1433.5C1264.03 1420.85 1278.46 1392.7 1283.45 1378.47C1269.81 1395.54 1262.67 1416.36 1246.13 1430.09C1249.33 1404.94 1264.47 1375.25 1273.48 1350.69C1266.02 1360.46 1229.46 1411.56 1219.97 1410.35C1216.1 1401.73 1242 1354.11 1246.73 1342.09C1234.97 1357.03 1221.41 1375.46 1204.98 1384.73C1209.36 1364.93 1229.82 1332.35 1240.56 1313.79C1232.52 1302.98 1222.18 1293.23 1213.67 1283.07C1210.02 1276.93 1206.04 1273.17 1201.23 1267.97Z"/><path fill="#EB83B8" transform="scale(0.423963 0.424116)" d="M1105.98 1035.37C1116.92 1028.51 1129.68 1022.51 1139.62 1014.16C1150.25 1005.23 1159.19 994.463 1170.82 986.615C1176.03 1010.11 1181.84 1034.05 1182.96 1058.14C1179.02 1061.19 1171.36 1066.8 1168.12 1070.08L1142.09 1082.8C1137.35 1079.76 1110.92 1042.2 1105.98 1035.37Z"/><path fill="#DA87B3" fill-opacity="0.83529413" transform="scale(0.423963 0.424116)" d="M1142.09 1082.8L1168.12 1070.08C1174.87 1104.04 1177.2 1163.97 1178.08 1199.71C1177.95 1219.04 1176.92 1229.61 1174.75 1248.46C1163.72 1240.19 1152.54 1232.1 1141.23 1224.21C1155.86 1208.27 1160.79 1195.41 1164.09 1173.87C1168.23 1146.88 1158.7 1104.36 1142.09 1082.8Z"/></svg>